<svg width="23" height="26" viewBox="0 0 23 26" fill="none" xmlns="http://www.w3.org/2000/svg">
<path d="M21.8794 15.1633L21.8794 15.1633L21.8768 15.1668C21.7877 15.2858 21.349 15.8038 21.0062 16.139L20.8153 16.3257L20.8151 16.3255L20.8096 16.3314C19.4895 17.731 17.1746 19.4946 14.7599 21.0825C12.3462 22.6699 9.85317 24.0685 8.18455 24.744L8.0596 24.7946V24.8054C8.00818 24.8277 7.93977 24.8561 7.85737 24.8889C7.65765 24.9686 7.38055 25.0727 7.0738 25.1767C6.45262 25.3873 5.74111 25.5866 5.29749 25.6004H5.17324C3.78277 25.6004 2.48288 24.8348 1.81797 23.5943C1.64195 23.263 1.46398 22.5902 1.32341 21.9698C1.25431 21.6649 1.19601 21.3811 1.15274 21.1705L1.15251 21.1694C1.13111 21.0652 1.1131 20.9775 1.09945 20.9151C1.09267 20.8841 1.08642 20.8568 1.081 20.836C1.07857 20.8266 1.07555 20.8155 1.07203 20.8048C0.789619 18.9482 0.600513 16.1077 0.600513 12.9848C0.600513 9.69454 0.791448 6.72023 1.13788 4.9037L1.14142 4.88514V4.88178L1.14207 4.87815C1.14443 4.86537 1.14809 4.84653 1.15301 4.82194C1.16281 4.77296 1.17718 4.70343 1.19521 4.61867C1.23127 4.44919 1.28169 4.22012 1.33902 3.97467C1.45471 3.47937 1.59416 2.93687 1.69885 2.67231C2.03009 1.91172 2.63257 1.25941 3.38762 0.844803C3.99511 0.551604 4.63053 0.401093 5.29577 0.400381C5.6357 0.417119 6.13846 0.534802 6.63614 0.681149C7.13146 0.826804 7.60262 0.995022 7.86674 1.10134L7.86673 1.10137L7.86972 1.10251C9.63125 1.77905 12.2102 3.23162 14.6801 4.86207C17.1504 6.49273 19.4898 8.28695 20.7785 9.63898L20.7784 9.63906L20.7834 9.644C21.0031 9.85873 21.2314 10.0981 21.422 10.3003C21.4666 10.3476 21.5095 10.3934 21.5501 10.4365C21.6706 10.5649 21.7694 10.6701 21.8245 10.724C22.3312 11.3699 22.6005 12.1618 22.6005 13.0159C22.6005 13.7838 22.3587 14.5513 21.8794 15.1633ZM1.13983 4.89073L1.13984 4.89065C1.13929 4.89501 1.13899 4.89589 1.13983 4.89073Z" fill="url(#paint0_linear_90_484)" stroke="url(#paint1_linear_90_484)" stroke-width="0.4"/>
<defs>
<linearGradient id="paint0_linear_90_484" x1="13.2496" y1="14.7147" x2="-7.35651" y2="23.4814" gradientUnits="userSpaceOnUse">
<stop stop-color="#FF8F71"/>
<stop offset="1" stop-color="#EF2D1A"/>
</linearGradient>
<linearGradient id="paint1_linear_90_484" x1="3.96623" y1="3.18281" x2="20.6175" y2="21.228" gradientUnits="userSpaceOnUse">
<stop stop-color="white" stop-opacity="0.25"/>
<stop offset="1" stop-color="white" stop-opacity="0"/>
</linearGradient>
</defs>
</svg>
