<svg width="0" height="0" class="hidden">
	<symbol id="discover" fill="none" viewBox="0 0 32 32" xmlns="http://www.w3.org/2000/svg">
		<g filter="url(#filter0_b_90_191)">
		<path d="M31 16C31 24.2845 24.2845 31 16 31C7.7155 31 1 24.2845 1 16C1 7.717 7.7155 1 16 1C24.2845 1 31 7.717 31 16Z" fill="#DADADA" fill-opacity="0.2"/>
		<path d="M16 31.1367C24.36 31.1367 31.1367 24.36 31.1367 16C31.1367 7.64149 24.36 0.863265 16 0.863265C7.63998 0.863265 0.863265 7.64149 0.863265 16C0.863265 24.36 7.63998 31.1367 16 31.1367Z" stroke="url(#paint0_linear_90_191)" stroke-width="0.27347" stroke-linecap="round" stroke-linejoin="round"/>
		</g>
		<g filter="url(#filter1_b_90_191)">
		<path d="M21.8 15.6068C21.8 15.9606 21.6886 16.3158 21.4659 16.6002C21.4241 16.656 21.2293 16.886 21.0761 17.0357L20.9926 17.1174C19.8233 18.3571 16.9139 20.2215 15.4384 20.819C15.4384 20.8326 14.5614 21.1878 14.1438 21.2H14.0881C13.4477 21.2 12.8491 20.8475 12.5429 20.276C12.3759 19.9616 12.2227 19.0498 12.2088 19.0376C12.0835 18.2197 12 16.9677 12 15.5932C12 14.152 12.0835 12.8442 12.2366 12.0413C12.2366 12.0277 12.3898 11.2928 12.4872 11.0479C12.6403 10.6954 12.9188 10.3947 13.2668 10.2041C13.5452 10.0694 13.8375 10 14.1438 10C14.4639 10.015 15.0625 10.2177 15.2991 10.313C16.8582 10.9118 19.8372 12.8714 20.9787 14.069C21.1736 14.2595 21.3824 14.4922 21.4381 14.5453C21.6747 14.8447 21.8 15.2122 21.8 15.6068Z" fill="#DADADA" fill-opacity="0.4"/>
		<path d="M12.5429 20.276L12.5912 20.2503C12.5117 20.1008 12.4331 19.8018 12.3718 19.5314C12.3415 19.3976 12.3159 19.2732 12.297 19.1811L12.297 19.181L12.2969 19.1808C12.2875 19.135 12.2797 19.0968 12.2737 19.0697C12.2708 19.0562 12.2682 19.0448 12.266 19.0363C12.2649 19.0322 12.2637 19.0278 12.2624 19.0239C12.2622 19.0234 12.262 19.0229 12.2618 19.0222C12.1377 18.2079 12.0547 16.9621 12.0547 15.5932C12.0547 14.1531 12.1382 12.8494 12.2904 12.0516L12.2913 12.0517V12.0452L12.2922 12.0406L12.297 12.0155C12.3014 11.9939 12.3077 11.9633 12.3156 11.9262C12.3314 11.8518 12.3535 11.7514 12.3787 11.6438C12.4292 11.4273 12.4908 11.1871 12.5377 11.0689C12.6857 10.7287 12.9549 10.4376 13.2918 10.2528C13.5623 10.1221 13.8457 10.0549 14.1425 10.0547C14.2954 10.0621 14.519 10.1147 14.7373 10.1789C14.955 10.2429 15.1621 10.3168 15.2787 10.3637L15.2787 10.3637L15.2795 10.3641C16.0535 10.6613 17.1842 11.2984 18.2654 12.0121C19.3467 12.7259 20.3727 13.5125 20.9391 14.1068L20.9391 14.1068L20.9405 14.1081C21.0371 14.2026 21.1373 14.3077 21.2208 14.3962C21.2407 14.4173 21.2598 14.4377 21.2776 14.4567C21.3314 14.5139 21.3744 14.5598 21.3974 14.5821C21.6247 14.871 21.7453 15.2253 21.7453 15.6068C21.7453 15.9494 21.6374 16.2925 21.4228 16.5665L21.4221 16.5675C21.3821 16.6209 21.1891 16.8488 21.0379 16.9966L20.9544 17.0783L20.9543 17.0782L20.9528 17.0798C20.3726 17.695 19.3573 18.4682 18.3003 19.1633C17.2435 19.8583 16.1508 20.4715 15.4178 20.7683L15.3837 20.7821V20.7861C15.3818 20.7869 15.3797 20.7878 15.3776 20.7888C15.3537 20.7994 15.3185 20.8142 15.2745 20.8317C15.1866 20.8668 15.0649 20.9125 14.9301 20.9582C14.6584 21.0503 14.3425 21.1392 14.1429 21.1453H14.0881C13.4677 21.1453 12.8877 20.8038 12.5911 20.2501L12.5429 20.276ZM12.5429 20.276C12.8491 20.8475 13.4477 21.2 14.0881 21.2H14.1438L12.2366 12.0413C12.0835 12.8442 12 14.152 12 15.5932C12 16.9677 12.0835 18.2197 12.2088 19.0376C12.2123 19.0406 12.2245 19.1 12.2434 19.1922C12.3002 19.4686 12.4176 20.0402 12.5429 20.276Z" stroke="url(#paint1_linear_90_191)" stroke-width="0.109388"/>
		</g>
		<defs>
		<filter id="filter0_b_90_191" x="-0.588826" y="-0.588856" width="33.1777" height="33.1777" filterUnits="userSpaceOnUse" color-interpolation-filters="sRGB">
		<feFlood flood-opacity="0" result="BackgroundImageFix"/>
		<feGaussianBlur in="BackgroundImage" stdDeviation="0.657694"/>
		<feComposite in2="SourceAlpha" operator="in" result="effect1_backgroundBlur_90_191"/>
		<feBlend mode="normal" in="SourceGraphic" in2="effect1_backgroundBlur_90_191" result="shape"/>
		</filter>
		<filter id="filter1_b_90_191" x="7.89796" y="5.89796" width="18.0041" height="19.4041" filterUnits="userSpaceOnUse" color-interpolation-filters="sRGB">
		<feFlood flood-opacity="0" result="BackgroundImageFix"/>
		<feGaussianBlur in="BackgroundImage" stdDeviation="2.05102"/>
		<feComposite in2="SourceAlpha" operator="in" result="effect1_backgroundBlur_90_191"/>
		<feBlend mode="normal" in="SourceGraphic" in2="effect1_backgroundBlur_90_191" result="shape"/>
		</filter>
		<linearGradient id="paint0_linear_90_191" x1="5.77551" y1="4.49504" x2="24.9123" y2="28.1964" gradientUnits="userSpaceOnUse">
		<stop stop-color="white" stop-opacity="0.25"/>
		<stop offset="1" stop-color="white" stop-opacity="0"/>
		</linearGradient>
		<linearGradient id="paint1_linear_90_191" x1="13.56" y1="11.3048" x2="20.845" y2="19.1996" gradientUnits="userSpaceOnUse">
		<stop stop-color="white" stop-opacity="0.25"/>
		<stop offset="1" stop-color="white" stop-opacity="0"/>
		</linearGradient>
		</defs>
	</symbol>

	<symbol id="home" fill="none" viewBox="0 0 27 28" xmlns="http://www.w3.org/2000/svg">
		<g filter="url(#filter0_b_90_180)">
		<path fill-rule="evenodd" clip-rule="evenodd" d="M9.66724 25.4391V21.4464C9.66722 20.4309 10.4951 19.6057 11.5209 19.5989H15.2784C16.3091 19.5989 17.1446 20.426 17.1446 21.4464V21.4464V25.4515C17.1444 26.3137 17.8395 27.0184 18.7102 27.0386H21.2152C23.7124 27.0386 25.7367 25.0346 25.7367 22.5624V22.5624V11.2043C25.7234 10.2318 25.2621 9.3185 24.4842 8.72441L15.9172 1.89222C14.4163 0.702595 12.2828 0.702595 10.782 1.89222L2.25249 8.73681C1.47164 9.32849 1.00962 10.2433 1 11.2167V22.5624C1 25.0346 3.02434 27.0386 5.5215 27.0386H8.02648C8.91881 27.0386 9.64219 26.3225 9.64219 25.4391V25.4391" fill="url(#paint0_linear_90_180)"/>
		<path d="M9.66724 25.4391V21.4464C9.66722 20.4309 10.4951 19.6057 11.5209 19.5989H15.2784C16.3091 19.5989 17.1446 20.426 17.1446 21.4464V21.4464V25.4515C17.1444 26.3137 17.8395 27.0184 18.7102 27.0386H21.2152C23.7124 27.0386 25.7367 25.0346 25.7367 22.5624V22.5624V11.2043C25.7234 10.2318 25.2621 9.3185 24.4842 8.72441L15.9172 1.89222C14.4163 0.702595 12.2828 0.702595 10.782 1.89222L2.25249 8.73681C1.47164 9.32849 1.00962 10.2433 1 11.2167V22.5624C1 25.0346 3.02434 27.0386 5.5215 27.0386H8.02648C8.91881 27.0386 9.64219 26.3225 9.64219 25.4391V25.4391" stroke="url(#paint1_linear_90_180)" stroke-width="1.5" stroke-linecap="round" stroke-linejoin="round"/>
		</g>
		<defs>
		<filter id="filter0_b_90_180" x="-4.56" y="-4.56" width="35.8568" height="37.1586" filterUnits="userSpaceOnUse" color-interpolation-filters="sRGB">
		<feFlood flood-opacity="0" result="BackgroundImageFix"/>
		<feGaussianBlur in="BackgroundImage" stdDeviation="2.405"/>
		<feComposite in2="SourceAlpha" operator="in" result="effect1_backgroundBlur_90_180"/>
		<feBlend mode="normal" in="SourceGraphic" in2="effect1_backgroundBlur_90_180" result="shape"/>
		</filter>
		<linearGradient id="paint0_linear_90_180" x1="15.1895" y1="15.763" x2="-6.95935" y2="25.9938" gradientUnits="userSpaceOnUse">
		<stop stop-color="#FF8F71"/>
		<stop offset="1" stop-color="#EF2D1A"/>
		</linearGradient>
		<linearGradient id="paint1_linear_90_180" x1="4.93768" y1="4.03354" x2="21.7068" y2="23.7641" gradientUnits="userSpaceOnUse">
		<stop stop-color="white" stop-opacity="0.25"/>
		<stop offset="1" stop-color="white" stop-opacity="0"/>
		</linearGradient>
		</defs>
	</symbol>

	<symbol id="profile" fill="none" viewBox="0 0 23 28" xmlns="http://www.w3.org/2000/svg">
		<g filter="url(#filter0_b_90_183)">
		<g filter="url(#filter1_b_90_183)">
		<path d="M10.9455 13.3359C12.7012 13.3359 14.2215 12.7061 15.4637 11.4637C16.7059 10.2214 17.3356 8.70148 17.3356 6.9455C17.3356 5.19012 16.7059 3.66996 15.4635 2.42731C14.2211 1.18527 12.701 0.555542 10.9455 0.555542C9.18953 0.555542 7.66961 1.18527 6.42741 2.42751C5.18521 3.66976 4.5553 5.18992 4.5553 6.9455C4.5553 8.70148 5.18521 10.2216 6.42761 11.4639C7.67002 12.7059 9.19014 13.3359 10.9455 13.3359V13.3359Z" fill="#DADADA" fill-opacity="0.2"/>
		<path d="M15.1055 11.1055L15.1055 11.1055C13.9582 12.2529 12.5668 12.8293 10.9455 12.8293C9.32461 12.8293 7.93329 12.2528 6.78578 11.1056C5.63835 9.95834 5.06189 8.56702 5.06189 6.9455C5.06189 5.32438 5.63836 3.93303 6.78563 2.78572C7.93288 1.63844 9.32395 1.06214 10.9455 1.06214C12.5665 1.06214 13.9578 1.63841 15.1053 2.78549C16.2527 3.93321 16.829 5.32457 16.829 6.9455C16.829 8.56707 16.2527 9.9582 15.1055 11.1055Z" stroke="url(#paint0_linear_90_183)" stroke-width="1.01319"/>
		</g>
		<g filter="url(#filter2_b_90_183)">
		<path d="M22.0905 20.9639C22.0546 20.444 21.9821 19.8769 21.8754 19.2781C21.7677 18.6747 21.629 18.1044 21.4629 17.5831C21.2914 17.0443 21.0581 16.5122 20.7698 16.0023C20.4705 15.4731 20.1189 15.0122 19.7245 14.633C19.312 14.2363 18.8069 13.9173 18.2229 13.6847C17.6409 13.4532 16.996 13.336 16.3061 13.336C16.0351 13.336 15.7731 13.4477 15.267 13.7789C14.9556 13.9831 14.5913 14.2192 14.1847 14.4804C13.837 14.703 13.366 14.9117 12.7842 15.1006C12.2166 15.2852 11.6403 15.3788 11.0714 15.3788C10.5026 15.3788 9.92652 15.2852 9.35831 15.1006C8.77713 14.9119 8.30612 14.7032 7.95883 14.4806C7.55606 14.2218 7.19156 13.9857 6.87546 13.7787C6.37002 13.4475 6.10779 13.3358 5.83684 13.3358C5.14672 13.3358 4.50197 13.4532 3.92019 13.6849C3.33658 13.9171 2.83135 14.2361 2.41845 14.6332C2.02418 15.0126 1.67244 15.4733 1.37355 16.0023C1.0854 16.5122 0.852117 17.0441 0.680398 17.5833C0.514551 18.1046 0.375839 18.6747 0.268109 19.2781C0.161392 19.8761 0.0888972 20.4434 0.0530549 20.9645C0.0178199 21.475 0 22.0048 0 22.54C0 23.9327 0.440436 25.0601 1.30896 25.8916C2.16674 26.7121 3.30175 27.1284 4.68199 27.1284H17.4621C18.8424 27.1284 19.977 26.7123 20.835 25.8916C21.7037 25.0607 22.1441 23.9331 22.1441 22.5398C22.1439 22.0022 22.1259 21.4719 22.0905 20.9639V20.9639Z" fill="#DADADA" fill-opacity="0.2"/>
		<path d="M20.9802 17.7368L20.9802 17.7367C20.8196 17.2324 20.6006 16.7323 20.3288 16.2517C20.0509 15.7603 19.7286 15.3397 19.3734 14.9982L19.3733 14.9981C19.0125 14.6511 18.5646 14.3661 18.0354 14.1553C17.5189 13.9499 16.9383 13.8426 16.3061 13.8426C16.1982 13.8426 16.0474 13.8737 15.5445 14.2028L20.9802 17.7368ZM20.9802 17.7368C21.1387 18.2345 21.2724 18.783 21.3767 19.3671C21.4807 19.951 21.5507 20.4998 21.5851 20.9987L22.0905 20.9639M20.9802 17.7368L22.0905 20.9639M14.4584 14.9066L14.4579 14.907C14.0609 15.1612 13.5459 15.3859 12.9406 15.5824C12.325 15.7826 11.696 15.8854 11.0715 15.8854C10.4468 15.8854 9.81799 15.7826 9.20187 15.5824L14.4584 14.9066ZM14.4584 14.9066C14.8659 14.6449 15.2315 14.408 15.5444 14.2028L14.4584 14.9066ZM7.68538 14.907L7.68505 14.9068C7.28135 14.6475 6.91556 14.4105 6.59792 14.2025L6.59782 14.2024C6.09578 13.8735 5.94471 13.8424 5.83684 13.8424C5.20436 13.8424 4.62394 13.9499 4.10758 14.1555L4.1075 14.1556C3.57892 14.3659 3.13092 14.6509 2.76973 14.9982L7.68538 14.907ZM7.68538 14.907C8.08207 15.1614 8.59721 15.3861 9.20176 15.5824L7.68538 14.907ZM22.0905 20.9639L21.5851 20.9991M22.0905 20.9639L21.5851 20.9991M1.81462 16.2515L1.81459 16.2515C1.54296 16.7322 1.32391 17.2321 1.16315 17.7369L1.81462 16.2515ZM1.81462 16.2515C2.0919 15.7607 2.41436 15.3402 2.76963 14.9983L1.81462 16.2515ZM0.558455 20.9992L0.558446 20.9994C0.52405 21.4977 0.506594 22.0159 0.506594 22.54C0.506594 23.8183 0.906547 24.805 1.65929 25.5257C2.40753 26.2413 3.40955 26.6218 4.68199 26.6218H17.4621C18.7346 26.6218 19.7363 26.2415 20.4848 25.5256L20.4848 25.5255C21.2375 24.8056 21.6375 23.8189 21.6375 22.5399L0.558455 20.9992ZM0.558455 20.9992C0.592855 20.4991 0.662778 19.9501 0.766815 19.3671L0.558455 20.9992ZM21.5851 20.9991C21.6197 21.4948 21.6373 22.0133 21.6375 22.5398L21.5851 20.9991ZM0.766825 19.367C0.871099 18.7831 1.00475 18.2348 1.1631 17.737L0.766825 19.367Z" stroke="url(#paint1_linear_90_183)" stroke-width="1.01319"/>
		</g>
		</g>
		<defs>
		<filter id="filter0_b_90_183" x="-4.87343" y="-4.31789" width="31.891" height="36.3197" filterUnits="userSpaceOnUse" color-interpolation-filters="sRGB">
		<feFlood flood-opacity="0" result="BackgroundImageFix"/>
		<feGaussianBlur in="BackgroundImage" stdDeviation="2.43672"/>
		<feComposite in2="SourceAlpha" operator="in" result="effect1_backgroundBlur_90_183"/>
		<feBlend mode="normal" in="SourceGraphic" in2="effect1_backgroundBlur_90_183" result="shape"/>
		</filter>
		<filter id="filter1_b_90_183" x="-0.318135" y="-4.31789" width="22.5271" height="22.5272" filterUnits="userSpaceOnUse" color-interpolation-filters="sRGB">
		<feFlood flood-opacity="0" result="BackgroundImageFix"/>
		<feGaussianBlur in="BackgroundImage" stdDeviation="2.43672"/>
		<feComposite in2="SourceAlpha" operator="in" result="effect1_backgroundBlur_90_183"/>
		<feBlend mode="normal" in="SourceGraphic" in2="effect1_backgroundBlur_90_183" result="shape"/>
		</filter>
		<filter id="filter2_b_90_183" x="-4.87343" y="8.46235" width="31.891" height="23.5395" filterUnits="userSpaceOnUse" color-interpolation-filters="sRGB">
		<feFlood flood-opacity="0" result="BackgroundImageFix"/>
		<feGaussianBlur in="BackgroundImage" stdDeviation="2.43672"/>
		<feComposite in2="SourceAlpha" operator="in" result="effect1_backgroundBlur_90_183"/>
		<feBlend mode="normal" in="SourceGraphic" in2="effect1_backgroundBlur_90_183" result="shape"/>
		</filter>
		<linearGradient id="paint0_linear_90_183" x1="6.58972" y1="2.04447" x2="14.7422" y2="12.1415" gradientUnits="userSpaceOnUse">
		<stop stop-color="white" stop-opacity="0.25"/>
		<stop offset="1" stop-color="white" stop-opacity="0"/>
		</linearGradient>
		<linearGradient id="paint1_linear_90_183" x1="3.52498" y1="14.9426" x2="10.7502" y2="29.3097" gradientUnits="userSpaceOnUse">
		<stop stop-color="white" stop-opacity="0.25"/>
		<stop offset="1" stop-color="white" stop-opacity="0"/>
		</linearGradient>
		</defs>
	</symbol>


</svg>